<svg xmlns="http://www.w3.org/2000/svg" width="48" height="48" id="folder">
  <path fill="#FFE57F" d="M42.5 40.5h-37a3 3 0 0 1-3-3v-29a3 3 0 0 1 3-3h12.757c.796 0 1.559.316 2.121.879l2.243 2.242a3 3 0 0 0 2.121.879H42.5a3 3 0 0 1 3 3v25a3 3 0 0 1-3 3z"></path>
  <path fill="#0277BD" d="M45.5 16.5a.5.5 0 0 1-.5-.5v-3.5c0-1.378-1.121-2.5-2.5-2.5H24.742a3.528 3.528 0 0 1-2.475-1.025l-2.243-2.242A2.479 2.479 0 0 0 18.257 6H5.5A2.503 2.503 0 0 0 3 8.5V13a.5.5 0 0 1-1 0V8.5C2 6.57 3.57 5 5.5 5h12.757c.935 0 1.813.364 2.475 1.025l2.243 2.242A2.513 2.513 0 0 0 24.742 9H42.5c1.93 0 3.5 1.57 3.5 3.5V16a.5.5 0 0 1-.5.5z"></path>
  <path fill="#FFE57F" d="M42.5 41.5h-38a2 2 0 0 1-2-2v-23a2 2 0 0 1 2-2h39a2 2 0 0 1 2 2v22a3 3 0 0 1-3 3z"></path>
  <path fill="#0277BD" d="M42.5 42h-38A2.503 2.503 0 0 1 2 39.5v-23C2 15.122 3.121 14 4.5 14h39c1.379 0 2.5 1.122 2.5 2.5v22c0 1.93-1.57 3.5-3.5 3.5zm-38-27c-.827 0-1.5.673-1.5 1.5v23c0 .827.673 1.5 1.5 1.5h38c1.379 0 2.5-1.122 2.5-2.5v-22c0-.827-.673-1.5-1.5-1.5h-39z"></path>
  <path fill="#FFF8E1" d="M3.5 38a.5.5 0 0 1-.5-.5v-21c0-.827.673-1.5 1.5-1.5h21a.5.5 0 0 1 0 1h-21a.5.5 0 0 0-.5.5v21a.5.5 0 0 1-.5.5z"></path>
</svg>
