<svg xmlns="http://www.w3.org/2000/svg" width="48" height="48" id="responsive">
  <g transform="translate(0 -1004.362)">
    <circle cx="24" cy="1028.362" r="24" fill="#3a6c87"></circle>
    <path fill="#2f4b6c" d="M24.514 47.982a24 24 0 0 0 1.183-.043 24 24 0 0 0 2.383-.289 24 24 0 0 0 2.34-.525 24 24 0 0 0 2.277-.756 24 24 0 0 0 2.19-.98 24 24 0 0 0 2.08-1.194 24 24 0 0 0 1.951-1.394 24 24 0 0 0 1.803-1.584 24 24 0 0 0 1.634-1.756 24 24 0 0 0 1.454-1.91 24 24 0 0 0 1.254-2.045 24 24 0 0 0 1.042-2.16 24 24 0 0 0 .823-2.254 24 24 0 0 0 .593-2.324 24 24 0 0 0 .098-.643L35 15.505a.5.5 0 0 0-.496-.495l-.004-.004h-24l.004.004H10.5a.5.5 0 0 0-.1-.01.5.5 0 0 0-.056.01.5.5 0 0 0-.344.498.5.5 0 0 0 0 .002v14.496H8.5l.004.004H8.5a.5.5 0 0 0-.156 0 .5.5 0 0 0-.344.498.5.5 0 0 0 0 .002c0 .017.005.033.006.05.003.15.018.295.049.436.017.082.048.158.074.236.024.073.045.146.076.215.037.084.086.16.133.239.035.058.066.118.105.173.052.073.112.14.172.207.034.038.06.08.096.116l.11.107 15.693 15.693z" color="#000" font-family="Sans" font-weight="400" style="line-height:normal;-inkscape-font-specification:Sans;text-indent:0;text-align:start;text-decoration-line:none;text-transform:none;block-progression:tb;marker:none" transform="translate(0 1004.362)"></path>
    <path fill="#fff" d="M2.344 6A.5.5 0 0 0 2 6.5V21H.5a.5.5 0 0 0-.156 0 .5.5 0 0 0-.344.5C0 22.909 1.27 24 2.75 24H23v1.5a.5.5 0 0 0 .5.5h8a.5.5 0 0 0 .5-.5v-13a.5.5 0 0 0-.5-.5H27V6.5a.5.5 0 0 0-.5-.5h-24a.5.5 0 0 0-.156 0ZM3 7h23v5h-2.5a.5.5 0 0 0-.156 0 .5.5 0 0 0-.344.5V21H3V7Zm11.938 3A3.977 3.977 0 0 0 11 12.531l-.438-.75a.5.5 0 0 0-.624-.25.5.5 0 0 0-.25.75l1 1.719a.5.5 0 0 0 .687.188l1.719-1a.504.504 0 1 0-.5-.876l-.563.313a2.983 2.983 0 0 1 3.438-1.531 3.057 3.057 0 0 1 1.844 1.406.5.5 0 1 0 .843-.5c-.53-.918-1.381-1.6-2.406-1.875a4.122 4.122 0 0 0-.813-.125ZM24 13h7v1h-7v-1zm-6.156.969a.5.5 0 0 0-.219.094l-1.719 1a.5.5 0 1 0 .5.843l.594-.344a2.956 2.956 0 0 1-3.469 1.594 3.056 3.056 0 0 1-1.844-1.406.5.5 0 1 0-.843.5c.53.919 1.381 1.6 2.406 1.875A3.996 3.996 0 0 0 18 15.719l.438.75a.504.504 0 1 0 .875-.5l-1-1.75a.5.5 0 0 0-.47-.25zM24 15h7v8h-7v-8zM1.25 22H23v1H2.75c-.757 0-1.249-.458-1.5-1ZM24 24h7v1h-7v-1z" color="#000" font-family="Sans" font-weight="400" overflow="visible" style="line-height:normal;-inkscape-font-specification:Sans;text-indent:0;text-align:start;text-decoration-line:none;text-transform:none;block-progression:tb;marker:none" transform="translate(8 1013.368)"></path>
  </g>
</svg>
