<svg xmlns="http://www.w3.org/2000/svg" width="48" height="48" id="responsive">
  <g transform="translate(0 -1004.362)">
    <circle cx="24" cy="1028.362" r="24" fill="#ef4c45" fill-rule="evenodd"></circle>
    <path fill="#df2209" d="M24.512 47.982a24 24 0 0 0 1.185-.043 24 24 0 0 0 2.383-.289 24 24 0 0 0 2.34-.525 24 24 0 0 0 2.277-.756 24 24 0 0 0 2.19-.98 24 24 0 0 0 2.08-1.194 24 24 0 0 0 1.951-1.394 24 24 0 0 0 1.803-1.584 24 24 0 0 0 1.634-1.756 24 24 0 0 0 1.454-1.91 24 24 0 0 0 1.254-2.045 24 24 0 0 0 1.042-2.16 24 24 0 0 0 .823-2.254 24 24 0 0 0 .593-2.324 24 24 0 0 0 .124-.813L34.848 15.158a.5.5 0 0 0-.348-.152h-24a.41.41 0 0 0-.156 0 .515.515 0 0 0-.344.5v14.5H8.5a.41.41 0 0 0-.156 0 .515.515 0 0 0-.344.5c0 .17.02.333.055.492.014.063.04.12.058.182.029.092.055.186.094.273.03.066.07.125.105.188.045.078.088.155.141.228.039.054.082.102.125.152.045.054.083.111.133.16l15.8 15.801z" color="#000" font-family="Sans" font-weight="400" style="line-height:normal;-inkscape-font-specification:Sans;text-indent:0;text-align:start;text-decoration-line:none;text-transform:none;block-progression:tb;marker:none" transform="translate(0 1004.362)"></path>
    <path fill="#fff" d="M2.344 6A.515.515 0 0 0 2 6.5V21H.5a.5.5 0 0 0-.156 0 .515.515 0 0 0-.344.5C0 22.909 1.27 24 2.75 24H23v1.5c0 .262.238.5.5.5h8a.52.52 0 0 0 .5-.5v-13a.52.52 0 0 0-.5-.5H27V6.5a.52.52 0 0 0-.5-.5h-24a.501.501 0 0 0-.156 0ZM3 7h23v5h-2.5a.5.5 0 0 0-.156 0 .515.515 0 0 0-.344.5V16h-3.313l1.157-1.156c.332-.28.022-.948-.407-.875a.504.504 0 0 0-.28.156l-1.907 1.906c-.498.498-.176.969.375.969H25.5a.52.52 0 0 0 .507-.5.52.52 0 0 0-.507-.5H24v-1h7v8h-7v-4h2.281l-1.125 1.125a.521.521 0 0 0-.055.741c.193.202.562.19.743-.022l1.937-1.906a.502.502 0 0 0 .157-.157c.09-.09.197-.781-.438-.781h-7a.5.5 0 0 0-.156 0 .526.526 0 0 0-.422.578c.04.262.316.463.578.422H23v2H3zm21 6h7v1h-7zM1.25 22H23v1H2.75c-.757 0-1.249-.458-1.5-1ZM24 24h7v1h-7z" color="#000" font-family="Sans" font-weight="400" overflow="visible" style="line-height:normal;-inkscape-font-specification:Sans;text-indent:0;text-align:start;text-decoration-line:none;text-transform:none;block-progression:tb;marker:none" transform="translate(8 1013.368)"></path>
  </g>
</svg>
