<svg xmlns="http://www.w3.org/2000/svg" viewBox="0 0 64 64" id="english-woman">
  <path d="M31.99 64c-9.73 0-19.45-2.07-29.1-6.21a.961.961 0 0 1-.56-1.11C4.08 48.97 7.37 44.27 19 43.1c2.62-.25 4.99-3.76 5.88-6.93.15-.52.68-.81 1.2-.67.52.14.82.68.67 1.2-1.06 3.77-3.88 7.99-7.56 8.34-11.1 1.11-13.4 5.53-14.79 11.28 18.3 7.65 36.86 7.65 55.2 0-1.41-5.75-3.72-10.17-14.79-11.29-3.6-.34-6.56-4.55-7.62-8.54a.971.971 0 0 1 .69-1.19.971.971 0 0 1 1.19.69c.88 3.3 3.34 6.87 5.93 7.11 11.67 1.17 14.87 5.68 16.68 13.58.11.46-.13.92-.56 1.11C51.45 61.93 41.71 64 31.99 64z"></path>
  <path d="M32 40.13c-5.69 0-9.63-5.13-10.37-10.32-1.32-.56-2.45-2.13-3.01-3.57-1.05-2.67 0-4.55 1.51-5.24.3-.14.76-.25 1.34-.11 3.14-.95 6.99-3.2 11.8-11.81.2-.35.59-.55.99-.49.1.01 9.57 1.53 9.3 12.29.11.03.21.07.3.11 1.51.69 2.56 2.57 1.51 5.24-.57 1.46-1.72 3.05-3.07 3.59-1.19 5.24-4.76 10.31-10.3 10.31zM20.95 22.77h-.01c-.83.38-1.03 1.44-.51 2.76.55 1.4 1.6 2.5 2.17 2.55.47.04.85.41.89.88.4 4.53 3.69 9.22 8.51 9.22 4.65 0 7.63-4.68 8.53-9.32.08-.43.44-.75.87-.78.57-.05 1.62-1.15 2.17-2.55.52-1.32.32-2.38-.51-2.76-.01-.01-.07 0-.17.04-.32.13-.69.08-.96-.14a.972.972 0 0 1-.36-.9c0-.01.01-.05.01-.05.64-8.3-5.01-10.54-6.96-11.06-4.08 7.12-7.96 10.78-12.89 12.18-.21.06-.43.05-.63-.03a.537.537 0 0 0-.15-.04z"></path>
  <path d="M51.4 46.32c-.21 0-.43-.07-.61-.22-4.8-3.89-4.59-13.96-4.43-21.31.03-1.5.06-2.93.05-4.13-.09-7.59-2.19-13.42-5.9-16.41-2.14-1.72-4.69-2.34-7.37-1.78-.16.03-.33.02-.49-.03-2.88-.91-5.73-.6-8.24.89-3.03 1.8-5.24 5.19-6.05 9.3-.5 2.54-.68 5.22-.85 7.81-.33 4.99-.65 9.74-3.12 13.25a4.4 4.4 0 0 0 1.97-.9c.22-.18.51-.25.79-.2.28.05.52.23.67.48.8 1.42 1.39 4.35-.65 7.02.63-.16 1.23-.39 1.66-.74.26-.21.61-.27.92-.16.31.11.55.37.63.69.04.16.37 1.66-.22 4.39-.11.52-.63.86-1.15.74a.963.963 0 0 1-.74-1.15c.19-.88.27-1.61.29-2.16-1.84.71-3.94.64-4.23.62a.973.973 0 0 1-.89-.71c-.11-.41.05-.84.4-1.07 2.96-1.96 2.98-4.24 2.66-5.53-2.16 1.11-4.34.63-4.45.6a.97.97 0 0 1-.45-1.65c3.27-3.06 3.61-8.2 3.97-13.64.18-2.65.36-5.4.88-8.05.92-4.65 3.45-8.51 6.96-10.59C26.29-.03 29.68-.43 32.98.54c3.18-.59 6.2.17 8.74 2.22 4.17 3.36 6.52 9.71 6.62 17.89.02 1.24-.01 2.68-.05 4.2-.15 6.95-.35 16.47 3.71 19.77.42.34.48.95.14 1.36-.18.21-.46.34-.74.34z"></path>
  <path d="M32 54.83c-7.09 0-12.81-3.83-15.3-10.24-.19-.5.05-1.06.55-1.26a.97.97 0 0 1 1.26.55c2.18 5.63 7.23 9 13.49 9 6.25 0 11.3-3.36 13.49-9 .19-.5.75-.75 1.26-.55.5.19.75.76.55 1.26C44.8 51 39.08 54.83 32 54.83zm18.57 6.61c-.49 0-.91-.37-.96-.86-.6-5.24-.02-10.52 1.66-15.28.18-.51.73-.77 1.24-.59.51.18.77.73.59 1.24-1.59 4.49-2.13 9.47-1.56 14.42a.967.967 0 0 1-.85 1.07h-.12zm-37.15.01a.965.965 0 0 1-.96-1.09c.71-6.27-.45-11.3-1.55-14.41-.18-.5.09-1.06.59-1.24a.973.973 0 0 1 1.24.59c1.68 4.74 2.25 10.02 1.66 15.27-.06.49-.47.88-.98.88z"></path>
</svg>
