<svg xmlns="http://www.w3.org/2000/svg" fill-rule="evenodd" stroke-linejoin="round" stroke-miterlimit="2" clip-rule="evenodd" viewBox="0 0 64 64" id="women">
  <g transform="translate(-320 -64)">
    <path fill="#505050" d="M356,208C356,201.373 350.627,196 344,196L344,196C337.373,196 332,201.373 332,208L332,224C332,225.061 332.421,226.078 333.172,226.828C333.922,227.579 334.939,228 336,228C340.439,228 347.561,228 352,228C353.061,228 354.078,227.579 354.828,226.828C355.579,226.078 356,225.061 356,224C356,219.999 356,213.645 356,208Z" transform="translate(8 -127.999)"></path>
    <path fill="#ffdcb6" d="M352,208L348,204C348,204 348,204 348,204C345.439,206.561 341.965,208 338.344,208C337.026,208 336,208 336,208L336,216C336,220.418 339.582,224 344,224L344,224C348.418,224 352,220.418 352,216L352,208Z" transform="translate(8 -128)"></path>
    <path fill="#ff6ca8" d="M372,236.123C372,234.288 370.751,232.688 368.97,232.243C364.366,231.091 355.839,228.96 352.97,228.243C352.333,228.083 351.667,228.083 351.03,228.243C348.161,228.96 339.634,231.091 335.03,232.243C333.249,232.688 332,234.288 332,236.123C332,239.369 332,244.461 332,248C332,249.061 332.421,250.078 333.172,250.828C333.922,251.579 334.939,252 336,252C343.664,252 360.336,252 368,252C369.061,252 370.078,251.579 370.828,250.828C371.579,250.078 372,249.061 372,248C372,244.461 372,239.369 372,236.123Z" transform="translate(0 -128)"></path>
    <path fill="#ea4c87" d="M352,252L344.237,229.941L340,231L340,234.694C340,235.474 340.499,236.166 341.239,236.413C341.239,236.413 341.24,236.413 341.24,236.413C342.214,236.738 342.743,237.788 342.424,238.763C342.382,238.891 342.341,239.016 342.302,239.136C342.111,239.72 342.2,240.36 342.542,240.87C344.341,243.555 350,252 350,252L352,252Z" transform="translate(0 -128)"></path>
    <path fill="#ea4c87" d="M352,252L344.237,229.941L340,231L340,234.694C340,235.474 340.499,236.166 341.239,236.413C341.239,236.413 341.24,236.413 341.24,236.413C342.214,236.738 342.743,237.788 342.424,238.763C342.382,238.891 342.341,239.016 342.302,239.136C342.111,239.72 342.2,240.36 342.542,240.87C344.341,243.555 350,252 350,252L352,252Z" transform="matrix(-1 0 0 1 704 -128)"></path>
    <path fill="#e0e0e0" d="M344.237,229.941L352,252L359.763,229.941L352.97,228.243C352.333,228.083 351.667,228.083 351.03,228.243L344.237,229.941Z" transform="translate(0 -128)"></path>
    <path fill="#ffb28c" d="M348,222.93C349.177,223.61 350.543,224 352,224L352,224C353.457,224 354.823,223.61 356,222.93L356,225.877C356,227.712 357.249,229.312 359.03,229.757C359.462,229.865 359.763,229.941 359.763,229.941C358.894,233.42 355.746,236 352,236C348.254,236 345.106,233.42 344.237,229.941C344.237,229.941 344.538,229.865 344.97,229.757C346.751,229.312 348,227.712 348,225.877L348,222.93Z" transform="translate(0 -128)"></path>
    <path d="M365,123L365,116C365,115.448 364.552,115 364,115C363.448,115 363,115.448 363,116L363,124C363,124.552 363.448,125 364,125L368,125C369.326,125 370.598,124.473 371.536,123.536C372.473,122.598 373,121.326 373,120C373,116.461 373,111.369 373,108.123C373,105.829 371.439,103.829 369.213,103.272L360.122,101C361.404,100.969 362.627,100.446 363.536,99.537C364.473,98.599 365,97.327 365,96.001C365,92 365,85.646 365,80.001C365,72.822 359.18,67.001 352,67.001L352,67.001C344.82,67.001 339,72.822 339,80.001L339,96.001C339,97.327 339.527,98.599 340.464,99.537C341.373,100.446 342.596,100.969 343.878,101L334.787,103.272C332.561,103.829 331,105.829 331,108.123C331,111.369 331,116.461 331,120C331,121.326 331.527,122.598 332.464,123.536C333.402,124.473 334.674,125 336,125L360,125C360.552,125 361,124.552 361,124C361,123.448 360.552,123 360,123L355.874,123L362.289,113.427C362.802,112.661 362.935,111.702 362.648,110.826L362.526,110.453C362.379,110 362.624,109.513 363.076,109.362L363.077,109.362C364.226,108.979 365,107.904 365,106.694L365,104.281L368.728,105.213C370.063,105.547 371,106.747 371,108.123C371,111.369 371,116.461 371,120C371,120.796 370.684,121.559 370.121,122.121C369.559,122.684 368.796,123 368,123L365,123ZM341,123L348.126,123L341.711,113.427C341.198,112.661 341.065,111.702 341.352,110.826L341.474,110.453C341.621,110 341.376,109.513 340.924,109.362L340.923,109.362C339.774,108.979 339,107.904 339,106.694L339,104.281L335.272,105.213C333.937,105.547 333,106.747 333,108.123L333,120C333,120.796 333.316,121.559 333.879,122.121C334.441,122.684 335.204,123 336,123L339,123L339,116C339,115.448 339.448,115 340,115C340.552,115 341,115.448 341,116L341,123ZM341,103.781L341,106.694C341,107.043 341.224,107.354 341.555,107.464C341.555,107.464 341.557,107.465 341.557,107.465C343.052,107.963 343.864,109.575 343.375,111.074C343.375,111.074 343.253,111.447 343.253,111.447C343.157,111.739 343.202,112.058 343.373,112.314L350.534,123L350.588,123L343.802,103.715C343.716,103.527 343.637,103.335 343.564,103.14L341,103.781ZM363,103.781L360.436,103.14C360.363,103.335 360.284,103.527 360.198,103.715L353.412,123L353.466,123L360.627,112.314C360.798,112.058 360.843,111.739 360.747,111.447C360.747,111.447 360.625,111.074 360.625,111.074C360.136,109.575 360.948,107.963 362.443,107.465C362.443,107.465 362.445,107.464 362.445,107.464C362.776,107.354 363,107.043 363,106.694L363,103.781ZM356.68,107.687C355.317,108.52 353.714,109 352,109C350.286,109 348.683,108.52 347.32,107.687L352,120.987L356.68,107.687ZM358.459,102.633C356.41,101.971 355,100.057 355,97.877L355,96.488C354.061,96.82 353.052,97 352,97L352,97C350.948,97 349.939,96.82 349,96.488L349,97.877C349,100.057 347.59,101.971 345.541,102.633L345.658,102.964C346.774,105.348 349.196,107 352,107C354.804,107 357.226,105.348 358.342,102.964L358.459,102.633ZM357,95.484L357,97.877C357,98.272 357.077,98.652 357.219,99.001L360,99.001C360.796,99.001 361.559,98.685 362.121,98.123C362.684,97.56 363,96.797 363,96.001C363,92 363,85.646 363,80.001C363,73.926 358.075,69.001 352,69.001L352,69.001C345.925,69.001 341,73.926 341,80.001L341,96.001C341,96.797 341.316,97.56 341.879,98.123C342.441,98.685 343.204,99.001 344,99.001L346.781,99.001C346.923,98.652 347,98.272 347,97.877L347,95.484C344.588,93.87 343,91.121 343,88L343,80C343,79.448 343.448,79 344,79C344,79 345.026,79 346.344,79C349.7,79 352.919,77.667 355.293,75.293C355.683,74.903 356.316,74.903 356.707,75.293L360.707,79.293C360.895,79.48 361,79.735 361,80L361,88C361,91.121 359.412,93.87 357,95.484ZM355.976,77.39C353.315,79.71 349.896,81 346.344,81C346.344,81 345,81 345,81C345,81 345,88 345,88C345,91.866 348.134,95 352,95C352,95 352,95 352,95C355.866,95 359,91.866 359,88C359,88 359,80.414 359,80.414L355.976,77.39Z"></path>
  </g>
</svg>
